<?xml version="1.0" encoding="UTF-8" standalone="no"?><!-- Generator: Gravit.io --><svg xmlns="http://www.w3.org/2000/svg" xmlns:xlink="http://www.w3.org/1999/xlink" style="isolation:isolate" viewBox="0 0 560 315" width="560pt" height="315pt"><defs><clipPath id="_clipPath_2emcliz1R29b6AQGt1fStyHG1VuyUZBW"><rect width="560" height="315"/></clipPath></defs><g clip-path="url(#_clipPath_2emcliz1R29b6AQGt1fStyHG1VuyUZBW)"><rect width="560" height="315" style="fill:rgb(0,0,0)" fill-opacity="0"/><path d=" M 175 95 C 151.55 107.171 124.81 142.748 89 149 C 66.399 152.946 39.671 171.216 18 193 C -66.328 277.766 195.274 225.948 291.062 245.529 C 338.568 255.239 377.709 273.933 426.154 273.952 C 486.668 273.975 623.16 271.141 593 230 C 524.868 137.06 446.054 165.409 393 135 C 368.409 120.905 359.834 94.436 326.38 78 C 272.146 51.354 225.235 68.927 175 95 Z " fill="rgb(248,223,66)" vector-effect="non-scaling-stroke" stroke-width="1" stroke="rgb(248,223,66)" stroke-linejoin="miter" stroke-linecap="square" stroke-miterlimit="3"/><path d=" M -26 160 C 71.098 142.739 53.769 192.967 100 198 C 179.927 206.702 240.597 153.768 320 151 C 370.467 149.241 414.089 148.667 463 162 C 512.421 175.472 562.117 182.9 593 226 Q 619.462 262.931 618 349 L 96 382 L -24 342 Q -123.098 177.261 -26 160 Z " fill="rgb(242,240,249)" vector-effect="non-scaling-stroke" stroke-width="1" stroke="rgb(242,240,249)" stroke-linejoin="miter" stroke-linecap="square" stroke-miterlimit="3"/><path d=" M -18.011 230 C 79.087 212.739 61.758 262.967 107.989 268 C 187.916 276.702 248.586 223.768 327.989 221 C 378.456 219.241 422.078 218.667 470.989 232 C 520.41 245.472 570.106 252.9 600.989 296 Q 627.451 332.931 625.989 419 L 103.989 452 L -16.011 412 Q -115.109 247.261 -18.011 230 Z " fill="rgb(248,223,66)" vector-effect="non-scaling-stroke" stroke-width="1" stroke="rgb(248,223,66)" stroke-linejoin="miter" stroke-linecap="square" stroke-miterlimit="3"/></g></svg>