<?xml version="1.0" encoding="UTF-8" standalone="no"?><!-- Generator: Gravit.io --><svg xmlns="http://www.w3.org/2000/svg" xmlns:xlink="http://www.w3.org/1999/xlink" style="isolation:isolate" viewBox="0 0 560 315" width="560pt" height="315pt"><defs><clipPath id="_clipPath_xeyB6Y2rrcgDOc8hYOMbrrKg2TVDZQm1"><rect width="560" height="315"/></clipPath></defs><g clip-path="url(#_clipPath_xeyB6Y2rrcgDOc8hYOMbrrKg2TVDZQm1)"><path d=" M 528.682 66.821 C 481.72 118.582 459.71 94.139 419.265 104.28 C 412.985 105.854 408.032 108.215 403.997 111.118 C 382.042 126.916 387.259 158.788 353.817 167.587 C 326.563 174.758 290.067 178.994 252.518 205.654 Q 218.935 229.499 57 250.961 L 533.975 340 L 584.705 56.959 Q 575.643 15.059 528.682 66.821 Z " fill="rgb(209,205,224)" vector-effect="non-scaling-stroke" stroke-width="0.81" stroke="rgb(209,205,224)" stroke-linejoin="miter" stroke-linecap="square" stroke-miterlimit="3"/><path d=" M 633.682 163.606 C 586.72 215.367 564.71 190.924 524.265 201.065 C 517.985 202.639 513.032 205 508.997 207.903 C 487.042 223.701 492.259 255.573 458.817 264.372 C 431.563 271.543 395.067 275.779 357.518 302.44 Q 323.935 326.284 162 347.747 L 638.975 436.785 L 689.705 153.744 Q 680.643 111.844 633.682 163.606 Z " fill="rgb(64,61,85)" vector-effect="non-scaling-stroke" stroke-width="0.81" stroke="rgb(64,61,85)" stroke-linejoin="miter" stroke-linecap="square" stroke-miterlimit="3"/><path d=" M 49.079 116.871 C 101.259 174.384 125.714 147.225 170.653 158.492 C 177.63 160.242 183.134 162.865 187.617 166.091 C 212.011 183.643 206.216 219.057 243.373 228.833 C 273.655 236.801 314.206 241.508 355.928 271.131 Q 393.242 297.625 573.17 321.472 L 43.197 420.404 L -13.17 105.914 Q -3.101 59.358 49.079 116.871 Z " fill="rgb(226,232,108)" vector-effect="non-scaling-stroke" stroke-width="0.9" stroke="rgb(226,232,108)" stroke-linejoin="miter" stroke-linecap="square" stroke-miterlimit="3"/><path d=" M 1.46 136.381 C 38.72 195.511 64.64 175.261 102.71 192.271 C 140.78 209.281 118.993 248.849 156.17 265.981 C 181.765 277.776 216.971 288.285 249.32 321.061 Q 278.252 350.375 434 399.631 L -51.19 404.491 L -52 116.941 Q -35.8 77.251 1.46 136.381 Z " fill="rgb(181,186,86)" vector-effect="non-scaling-stroke" stroke-width="0.81" stroke="rgb(181,186,86)" stroke-linejoin="miter" stroke-linecap="square" stroke-miterlimit="3"/></g></svg>