<?xml version="1.0" encoding="UTF-8" standalone="no"?><!-- Generator: Gravit.io --><svg xmlns="http://www.w3.org/2000/svg" xmlns:xlink="http://www.w3.org/1999/xlink" style="isolation:isolate" viewBox="0 0 560 315" width="560pt" height="315pt"><defs><clipPath id="_clipPath_RoOmi2j2DS0QvyivETusiHBWafBS0TxW"><rect width="560" height="315"/></clipPath></defs><g clip-path="url(#_clipPath_RoOmi2j2DS0QvyivETusiHBWafBS0TxW)"><path d=" M 575.682 86.606 C 528.72 138.367 506.71 113.924 466.265 124.065 C 459.985 125.639 455.032 128 450.997 130.903 C 429.042 146.701 434.259 178.573 400.817 187.372 C 373.563 194.543 337.067 198.779 299.518 225.44 Q 265.935 249.284 104 270.747 L 580.975 359.785 L 631.705 76.744 Q 622.643 34.844 575.682 86.606 Z " fill="rgb(64,61,85)" vector-effect="non-scaling-stroke" stroke-width="0.81" stroke="rgb(64,61,85)" stroke-linejoin="miter" stroke-linecap="square" stroke-miterlimit="3"/><path d=" M 33 -2 C 79 71 111 46 158 67 C 165.297 70.26 170.813 74.192 175.096 78.587 C 198.402 102.501 185.228 140.133 224 158 C 255.598 172.561 299.063 185.536 339 226 Q 374.719 262.191 567 323 L -32 329 L -33 -26 Q -13 -75 33 -2 Z " fill="rgb(226,232,108)" vector-effect="non-scaling-stroke" stroke-width="1" stroke="rgb(226,232,108)" stroke-linejoin="miter" stroke-linecap="square" stroke-miterlimit="3"/><path d=" M 1.46 136.381 C 38.72 195.511 64.64 175.261 102.71 192.271 C 140.78 209.281 118.993 248.849 156.17 265.981 C 181.765 277.776 216.971 288.285 249.32 321.061 Q 278.252 350.375 434 399.631 L -51.19 404.491 L -52 116.941 Q -35.8 77.251 1.46 136.381 Z " fill="rgb(181,186,86)" vector-effect="non-scaling-stroke" stroke-width="0.81" stroke="rgb(181,186,86)" stroke-linejoin="miter" stroke-linecap="square" stroke-miterlimit="3"/></g></svg>